<svg xmlns="http://www.w3.org/2000/svg" version="1.1" xmlns:xlink="http://www.w3.org/1999/xlink" xmlns:svgjs="http://svgjs.dev/svgjs" viewBox="0 0 8.666238971039512 6.152143260200226"><g transform="matrix(1,0,0,1,0.6066943146213188,3.4303330364879985)"><rect width="8.666238971039512" height="8.666238971039512" x="-0.6066943146213184" y="-4.687380891907641" fill="#ffffff"></rect><g><path d=" M 0.11325 0.2587499999999998 Q 0.1785 0.13649999999999984 0.2985 0.06824999999999981 Q 0.4185 -2.220446049250313e-16 0.5745 -2.220446049250313e-16 Q 0.7725 -2.220446049250313e-16 0.9075 0.10574999999999979 Q 1.0425 0.2114999999999998 1.0815000000000001 0.3929999999999998 L 0.765 0.3929999999999998 Q 0.7365 0.33299999999999985 0.68625 0.30149999999999977 Q 0.636 0.2699999999999998 0.5700000000000001 0.2699999999999998 Q 0.468 0.2699999999999998 0.40725 0.3427499999999998 Q 0.34650000000000003 0.41549999999999987 0.34650000000000003 0.5369999999999998 Q 0.34650000000000003 0.6599999999999998 0.40725 0.7327499999999998 Q 0.468 0.8054999999999999 0.5700000000000001 0.8054999999999999 Q 0.636 0.8054999999999999 0.68625 0.7739999999999998 Q 0.7365 0.7424999999999998 0.765 0.6824999999999999 L 1.0815000000000001 0.6824999999999999 Q 1.0425 0.8639999999999999 0.9075 0.9697499999999999 Q 0.7725 1.0755 0.5745 1.0755 Q 0.4185 1.0755 0.2985 1.0072499999999998 Q 0.1785 0.9389999999999998 0.11325 0.8167499999999999 Q 0.048 0.6944999999999999 0.048 0.5369999999999998 Q 0.048 0.3809999999999998 0.11325 0.2587499999999998 M 1.218743408203125 0.41849999999999987 Q 1.265993408203125 0.32099999999999984 1.347743408203125 0.26849999999999985 Q 1.429493408203125 0.21599999999999986 1.529993408203125 0.21599999999999986 Q 1.616993408203125 0.21599999999999986 1.679993408203125 0.25049999999999983 Q 1.7429934082031249 0.2849999999999998 1.7774934082031248 0.3434999999999998 L 1.7774934082031248 0.2264999999999998 L 2.071493408203125 0.2264999999999998 L 2.071493408203125 1.0679999999999998 L 1.7774934082031248 1.0679999999999998 L 1.7774934082031248 0.9509999999999998 Q 1.7429934082031249 1.0094999999999998 1.6792434082031251 1.0439999999999998 Q 1.615493408203125 1.0784999999999998 1.529993408203125 1.0784999999999998 Q 1.429493408203125 1.0784999999999998 1.347743408203125 1.0259999999999998 Q 1.265993408203125 0.9734999999999998 1.218743408203125 0.8752499999999999 Q 1.171493408203125 0.7769999999999999 1.171493408203125 0.6464999999999999 Q 1.171493408203125 0.5159999999999998 1.218743408203125 0.41849999999999987 M 1.733243408203125 0.5189999999999998 Q 1.688993408203125 0.4724999999999998 1.6244934082031248 0.4724999999999998 Q 1.558493408203125 0.4724999999999998 1.514993408203125 0.5182499999999999 Q 1.471493408203125 0.5639999999999998 1.471493408203125 0.6464999999999999 Q 1.471493408203125 0.7274999999999998 1.514993408203125 0.7747499999999998 Q 1.558493408203125 0.8219999999999998 1.6244934082031248 0.8219999999999998 Q 1.688993408203125 0.8219999999999998 1.733243408203125 0.7754999999999999 Q 1.7774934082031248 0.7289999999999999 1.7774934082031248 0.6464999999999999 Q 1.7774934082031248 0.5654999999999998 1.733243408203125 0.5189999999999998 M 2.651982421875 0.2609999999999998 Q 2.722482421875 0.21899999999999986 2.8034824218749996 0.21899999999999986 L 2.8034824218749996 0.5324999999999999 L 2.720982421875 0.5324999999999999 Q 2.624982421875 0.5324999999999999 2.578482421875 0.5699999999999998 Q 2.531982421875 0.6074999999999998 2.531982421875 0.7004999999999999 L 2.531982421875 1.0679999999999998 L 2.237982421875 1.0679999999999998 L 2.237982421875 0.2264999999999998 L 2.531982421875 0.2264999999999998 L 2.531982421875 0.3749999999999998 Q 2.581482421875 0.3029999999999998 2.651982421875 0.2609999999999998 M 3.7065146484375 0.7064999999999999 L 3.1500146484375 0.7064999999999999 Q 3.1545146484375 0.7754999999999999 3.1882646484375 0.8092499999999998 Q 3.2220146484375 0.8429999999999999 3.2745146484375 0.8429999999999999 Q 3.3480146484374997 0.8429999999999999 3.3795146484374996 0.7769999999999999 L 3.6930146484375 0.7769999999999999 Q 3.6735146484375 0.8639999999999999 3.6172646484374997 0.9322499999999998 Q 3.5610146484375 1.0004999999999997 3.4755146484374997 1.0394999999999999 Q 3.3900146484375 1.0784999999999998 3.2865146484374996 1.0784999999999998 Q 3.1620146484375 1.0784999999999998 3.0652646484374997 1.0259999999999998 Q 2.9685146484375 0.9734999999999998 2.9137646484374997 0.8759999999999999 Q 2.8590146484375 0.7784999999999999 2.8590146484375 0.6464999999999999 Q 2.8590146484375 0.5144999999999998 2.9130146484374997 0.41774999999999984 Q 2.9670146484375 0.32099999999999984 3.0637646484374996 0.26849999999999985 Q 3.1605146484374997 0.21599999999999986 3.2865146484374996 0.21599999999999986 Q 3.4110146484375 0.21599999999999986 3.5070146484375 0.2669999999999998 Q 3.6030146484375 0.31799999999999984 3.6570146484375 0.4132499999999998 Q 3.7110146484374997 0.5084999999999998 3.7110146484374997 0.6374999999999998 Q 3.7110146484374997 0.6719999999999998 3.7065146484375 0.7064999999999999 M 3.4110146484375 0.5639999999999998 Q 3.4110146484375 0.5099999999999998 3.3750146484375 0.47924999999999984 Q 3.3390146484375 0.4484999999999998 3.2850146484375 0.4484999999999998 Q 3.2310146484374997 0.4484999999999998 3.1965146484374998 0.4777499999999998 Q 3.1620146484375 0.5069999999999998 3.1515146484375 0.5639999999999998 L 3.4110146484375 0.5639999999999998 M 4.620806396484375 0.5377499999999998 Q 4.576556396484375 0.6164999999999998 4.4873063964843745 0.6637499999999998 Q 4.398056396484375 0.7109999999999999 4.269056396484375 0.7109999999999999 L 4.123556396484375 0.7109999999999999 L 4.123556396484375 1.0679999999999998 L 3.829556396484375 1.0679999999999998 L 3.829556396484375 0.010499999999999732 L 4.269056396484375 0.010499999999999732 Q 4.396556396484375 0.010499999999999732 4.485806396484374 0.05549999999999988 Q 4.575056396484375 0.10049999999999981 4.620056396484375 0.17999999999999983 Q 4.665056396484375 0.25949999999999984 4.665056396484375 0.3629999999999999 Q 4.665056396484375 0.45899999999999985 4.620806396484375 0.5377499999999998 M 4.365056396484375 0.3629999999999999 Q 4.365056396484375 0.24749999999999983 4.240556396484375 0.24749999999999983 L 4.123556396484375 0.24749999999999983 L 4.123556396484375 0.47699999999999987 L 4.240556396484375 0.47699999999999987 Q 4.365056396484375 0.47699999999999987 4.365056396484375 0.3629999999999999 M 5.196035888671875 0.2609999999999998 Q 5.266535888671875 0.21899999999999986 5.3475358886718745 0.21899999999999986 L 5.3475358886718745 0.5324999999999999 L 5.265035888671875 0.5324999999999999 Q 5.169035888671875 0.5324999999999999 5.122535888671875 0.5699999999999998 Q 5.076035888671875 0.6074999999999998 5.076035888671875 0.7004999999999999 L 5.076035888671875 1.0679999999999998 L 4.782035888671874 1.0679999999999998 L 4.782035888671874 0.2264999999999998 L 5.076035888671875 0.2264999999999998 L 5.076035888671875 0.3749999999999998 Q 5.125535888671875 0.3029999999999998 5.196035888671875 0.2609999999999998 M 5.616818115234374 1.0259999999999998 Q 5.517068115234375 0.9734999999999998 5.460068115234375 0.8759999999999999 Q 5.403068115234374 0.7784999999999999 5.403068115234374 0.6464999999999999 Q 5.403068115234374 0.5159999999999998 5.460818115234375 0.41849999999999987 Q 5.518568115234375 0.32099999999999984 5.618318115234374 0.26849999999999985 Q 5.718068115234375 0.21599999999999986 5.844068115234375 0.21599999999999986 Q 5.970068115234374 0.21599999999999986 6.069818115234375 0.26849999999999985 Q 6.169568115234375 0.32099999999999984 6.227318115234374 0.41849999999999987 Q 6.285068115234375 0.5159999999999998 6.285068115234375 0.6464999999999999 Q 6.285068115234375 0.7769999999999999 6.227318115234374 0.8752499999999999 Q 6.169568115234375 0.9734999999999998 6.069068115234375 1.0259999999999998 Q 5.968568115234374 1.0784999999999998 5.842568115234375 1.0784999999999998 Q 5.716568115234375 1.0784999999999998 5.616818115234374 1.0259999999999998 M 5.945318115234374 0.7777499999999998 Q 5.986568115234375 0.7319999999999998 5.986568115234375 0.6464999999999999 Q 5.986568115234375 0.5609999999999998 5.945318115234374 0.5159999999999998 Q 5.904068115234375 0.47099999999999986 5.844068115234375 0.47099999999999986 Q 5.7840681152343745 0.47099999999999986 5.743568115234375 0.5159999999999998 Q 5.703068115234375 0.5609999999999998 5.703068115234375 0.6464999999999999 Q 5.703068115234375 0.7334999999999998 5.742068115234375 0.7784999999999999 Q 5.781068115234374 0.8234999999999999 5.842568115234375 0.8234999999999999 Q 5.904068115234375 0.8234999999999999 5.945318115234374 0.7777499999999998" fill="#173054" fill-rule="nonzero"></path></g><g><path d=" M 0.5202272727272726 1.461934090909091 L 0.5202272727272726 1.9323886363636364 L 0.4725 1.9323886363636364 L 0.4725 1.5567068181818182 L 0.30477272727272725 1.9323886363636364 L 0.26999999999999996 1.9323886363636364 L 0.10227272727272727 1.5580704545454547 L 0.10227272727272727 1.9323886363636364 L 0.05454545454545454 1.9323886363636364 L 0.05454545454545454 1.461934090909091 L 0.105 1.461934090909091 L 0.28704545454545455 1.8696613636363637 L 0.46909090909090906 1.461934090909091 L 0.5202272727272726 1.461934090909091 M 0.6296454412286931 1.6450022727272728 Q 0.6524863503196022 1.6017068181818184 0.6930545321377841 1.578184090909091 Q 0.7336227139559659 1.5546613636363638 0.7847590775923295 1.5546613636363638 Q 0.8379408957741477 1.5546613636363638 0.876463623046875 1.5792068181818184 Q 0.9149863503196023 1.6037522727272728 0.9320318048650568 1.641934090909091 L 0.9320318048650568 1.5601159090909091 L 0.9797590775923295 1.5601159090909091 L 0.9797590775923295 1.9323886363636364 L 0.9320318048650568 1.9323886363636364 L 0.9320318048650568 1.8498886363636364 Q 0.9143045321377841 1.8880704545454545 0.8757818048650567 1.9129568181818182 Q 0.8372590775923295 1.9378431818181818 0.7840772594105113 1.9378431818181818 Q 0.7336227139559659 1.9378431818181818 0.6930545321377841 1.9139795454545456 Q 0.6524863503196022 1.8901159090909092 0.6296454412286931 1.8464795454545455 Q 0.6068045321377841 1.8028431818181818 0.6068045321377841 1.7455704545454547 Q 0.6068045321377841 1.6882977272727273 0.6296454412286931 1.6450022727272728 M 0.9136227139559658 1.6671613636363638 Q 0.895213623046875 1.6330704545454546 0.8635090775923295 1.6146613636363638 Q 0.831804532137784 1.5962522727272728 0.7936227139559658 1.5962522727272728 Q 0.7540772594105114 1.5962522727272728 0.7227136230468749 1.6139795454545456 Q 0.6913499866832387 1.6317068181818182 0.6732818048650568 1.6654568181818183 Q 0.655213623046875 1.6992068181818183 0.655213623046875 1.7455704545454547 Q 0.655213623046875 1.7912522727272728 0.6732818048650568 1.825684090909091 Q 0.6913499866832387 1.8601159090909092 0.7227136230468749 1.878184090909091 Q 0.7540772594105114 1.8962522727272728 0.7936227139559658 1.8962522727272728 Q 0.831804532137784 1.8962522727272728 0.8635090775923295 1.877843181818182 Q 0.895213623046875 1.859434090909091 0.9136227139559658 1.825343181818182 Q 0.9320318048650568 1.7912522727272728 0.9320318048650568 1.746252272727273 Q 0.9320318048650568 1.7012522727272728 0.9136227139559658 1.6671613636363638 M 1.3724780273437498 1.5945477272727273 Q 1.414750754616477 1.6357977272727273 1.414750754616477 1.7142068181818182 L 1.414750754616477 1.9323886363636364 L 1.3677053000710226 1.9323886363636364 L 1.3677053000710226 1.7196613636363638 Q 1.3677053000710226 1.6589795454545455 1.3373643909801134 1.626934090909091 Q 1.3070234818892044 1.5948886363636365 1.2545234818892044 1.5948886363636365 Q 1.200659845525568 1.5948886363636365 1.1686143909801134 1.6289795454545455 Q 1.136568936434659 1.6630704545454547 1.136568936434659 1.7292068181818183 L 1.136568936434659 1.9323886363636364 L 1.088841663707386 1.9323886363636364 L 1.088841663707386 1.5601159090909091 L 1.136568936434659 1.5601159090909091 L 1.136568936434659 1.623525 Q 1.1542962091619318 1.5894340909090912 1.1877053000710225 1.5713659090909093 Q 1.2211143909801134 1.5532977272727275 1.2633871182528407 1.5532977272727275 Q 1.3302053000710226 1.5532977272727275 1.3724780273437498 1.5945477272727273 M 1.5214523037997159 1.6450022727272728 Q 1.5442932128906248 1.6017068181818184 1.5848613947088066 1.578184090909091 Q 1.6254295765269884 1.5546613636363638 1.6765659401633521 1.5546613636363638 Q 1.7297477583451704 1.5546613636363638 1.7682704856178977 1.5792068181818184 Q 1.8067932128906248 1.6037522727272728 1.8238386674360794 1.641934090909091 L 1.8238386674360794 1.5601159090909091 L 1.871565940163352 1.5601159090909091 L 1.871565940163352 1.9323886363636364 L 1.8238386674360794 1.9323886363636364 L 1.8238386674360794 1.8498886363636364 Q 1.8061113947088066 1.8880704545454545 1.7675886674360795 1.9129568181818182 Q 1.7290659401633521 1.9378431818181818 1.675884121981534 1.9378431818181818 Q 1.6254295765269884 1.9378431818181818 1.5848613947088066 1.9139795454545456 Q 1.5442932128906248 1.8901159090909092 1.5214523037997159 1.8464795454545455 Q 1.4986113947088067 1.8028431818181818 1.4986113947088067 1.7455704545454547 Q 1.4986113947088067 1.6882977272727273 1.5214523037997159 1.6450022727272728 M 1.8054295765269885 1.6671613636363638 Q 1.7870204856178975 1.6330704545454546 1.755315940163352 1.6146613636363638 Q 1.7236113947088065 1.5962522727272728 1.6854295765269884 1.5962522727272728 Q 1.6458841219815339 1.5962522727272728 1.6145204856178976 1.6139795454545456 Q 1.5831568492542611 1.6317068181818182 1.5650886674360793 1.6654568181818183 Q 1.5470204856178975 1.6992068181818183 1.5470204856178975 1.7455704545454547 Q 1.5470204856178975 1.7912522727272728 1.5650886674360793 1.825684090909091 Q 1.5831568492542611 1.8601159090909092 1.6145204856178976 1.878184090909091 Q 1.6458841219815339 1.8962522727272728 1.6854295765269884 1.8962522727272728 Q 1.7236113947088065 1.8962522727272728 1.755315940163352 1.877843181818182 Q 1.7870204856178975 1.859434090909091 1.8054295765269885 1.825343181818182 Q 1.8238386674360794 1.7912522727272728 1.8238386674360794 1.746252272727273 Q 1.8238386674360794 1.7012522727272728 1.8054295765269885 1.6671613636363638 M 2.228148526278409 1.5792068181818184 Q 2.2670121626420454 1.6037522727272728 2.2840576171875 1.641252272727273 L 2.2840576171875 1.5601159090909091 L 2.3317848899147724 1.5601159090909091 L 2.3317848899147724 1.941934090909091 Q 2.3317848899147724 1.9930704545454547 2.3096257990056817 2.032615909090909 Q 2.2874667080965905 2.0721613636363636 2.2479212535511364 2.0936386363636363 Q 2.2083757990056814 2.115115909090909 2.157921253551136 2.115115909090909 Q 2.0863303444602272 2.115115909090909 2.0389439808238636 2.081025 Q 1.9915576171874998 2.046934090909091 1.9799667080965908 1.9882977272727274 L 2.027012162642045 1.9882977272727274 Q 2.0392848899147724 2.0271613636363637 2.073716708096591 2.050343181818182 Q 2.1081485262784088 2.073525 2.157921253551136 2.073525 Q 2.1940576171874997 2.073525 2.2226939808238635 2.058184090909091 Q 2.251330344460227 2.042843181818182 2.2676939808238634 2.012843181818182 Q 2.2840576171875 1.982843181818182 2.2840576171875 1.941934090909091 L 2.2840576171875 1.8498886363636364 Q 2.266330344460227 1.8880704545454545 2.2278076171874996 1.9129568181818182 Q 2.1892848899147728 1.9378431818181818 2.1367848899147726 1.9378431818181818 Q 2.085648526278409 1.9378431818181818 2.045080344460227 1.9139795454545456 Q 2.0045121626420452 1.8901159090909092 1.9816712535511363 1.8464795454545455 Q 1.958830344460227 1.8028431818181818 1.958830344460227 1.7455704545454547 Q 1.958830344460227 1.6882977272727273 1.9816712535511363 1.6450022727272728 Q 2.0045121626420452 1.6017068181818184 2.045080344460227 1.578184090909091 Q 2.085648526278409 1.5546613636363638 2.1367848899147726 1.5546613636363638 Q 2.1892848899147728 1.5546613636363638 2.228148526278409 1.5792068181818184 M 2.265648526278409 1.6671613636363638 Q 2.247239435369318 1.6330704545454546 2.2155348899147724 1.6146613636363638 Q 2.183830344460227 1.5962522727272728 2.145648526278409 1.5962522727272728 Q 2.1061030717329543 1.5962522727272728 2.074739435369318 1.6139795454545456 Q 2.043375799005682 1.6317068181818182 2.0253076171875 1.6654568181818183 Q 2.007239435369318 1.6992068181818183 2.007239435369318 1.7455704545454547 Q 2.007239435369318 1.7912522727272728 2.0253076171875 1.825684090909091 Q 2.043375799005682 1.8601159090909092 2.074739435369318 1.878184090909091 Q 2.1061030717329543 1.8962522727272728 2.145648526278409 1.8962522727272728 Q 2.183830344460227 1.8962522727272728 2.2155348899147724 1.877843181818182 Q 2.247239435369318 1.859434090909091 2.265648526278409 1.825343181818182 Q 2.2840576171875 1.7912522727272728 2.2840576171875 1.746252272727273 Q 2.2840576171875 1.7012522727272728 2.265648526278409 1.6671613636363638 M 2.4401856578480112 1.4796613636363638 Q 2.4299583851207385 1.469434090909091 2.4299583851207385 1.454434090909091 Q 2.4299583851207385 1.439434090909091 2.4401856578480112 1.4295477272727273 Q 2.450412930575284 1.4196613636363637 2.464731112393466 1.4196613636363637 Q 2.4790492942116478 1.4196613636363637 2.4892765669389205 1.4295477272727273 Q 2.4995038396661933 1.439434090909091 2.4995038396661933 1.454434090909091 Q 2.4995038396661933 1.469434090909091 2.4892765669389205 1.4796613636363638 Q 2.4790492942116478 1.4898886363636366 2.464731112393466 1.4898886363636366 Q 2.450412930575284 1.4898886363636366 2.4401856578480112 1.4796613636363638 M 2.488594748757102 1.5601159090909091 L 2.488594748757102 1.9323886363636364 L 2.4408674760298297 1.9323886363636364 L 2.4408674760298297 1.5601159090909091 L 2.488594748757102 1.5601159090909091 M 2.8806428666548296 1.5945477272727273 Q 2.9229155939275566 1.6357977272727273 2.9229155939275566 1.7142068181818182 L 2.9229155939275566 1.9323886363636364 L 2.8758701393821022 1.9323886363636364 L 2.8758701393821022 1.7196613636363638 Q 2.8758701393821022 1.6589795454545455 2.845529230291193 1.626934090909091 Q 2.815188321200284 1.5948886363636365 2.762688321200284 1.5948886363636365 Q 2.7088246848366477 1.5948886363636365 2.676779230291193 1.6289795454545455 Q 2.6447337757457383 1.6630704545454547 2.6447337757457383 1.7292068181818183 L 2.6447337757457383 1.9323886363636364 L 2.597006503018466 1.9323886363636364 L 2.597006503018466 1.5601159090909091 L 2.6447337757457383 1.5601159090909091 L 2.6447337757457383 1.623525 Q 2.6624610484730113 1.5894340909090912 2.695870139382102 1.5713659090909093 Q 2.7292792302911932 1.5532977272727275 2.7715519575639203 1.5532977272727275 Q 2.838370139382102 1.5532977272727275 2.8806428666548296 1.5945477272727273 M 3.2760944158380676 1.5792068181818184 Q 3.314958052201704 1.6037522727272728 3.3320035067471587 1.641252272727273 L 3.3320035067471587 1.5601159090909091 L 3.3797307794744316 1.5601159090909091 L 3.3797307794744316 1.941934090909091 Q 3.3797307794744316 1.9930704545454547 3.3575716885653404 2.032615909090909 Q 3.3354125976562496 2.0721613636363636 3.295867143110795 2.0936386363636363 Q 3.2563216885653405 2.115115909090909 3.2058671431107952 2.115115909090909 Q 3.134276234019886 2.115115909090909 3.0868898703835224 2.081025 Q 3.0395035067471587 2.046934090909091 3.0279125976562495 1.9882977272727274 L 3.0749580522017044 1.9882977272727274 Q 3.0872307794744316 2.0271613636363637 3.1216625976562495 2.050343181818182 Q 3.156094415838068 2.073525 3.2058671431107952 2.073525 Q 3.242003506747159 2.073525 3.270639870383522 2.058184090909091 Q 3.299276234019886 2.042843181818182 3.3156398703835226 2.012843181818182 Q 3.3320035067471587 1.982843181818182 3.3320035067471587 1.941934090909091 L 3.3320035067471587 1.8498886363636364 Q 3.314276234019886 1.8880704545454545 3.275753506747159 1.9129568181818182 Q 3.2372307794744315 1.9378431818181818 3.1847307794744313 1.9378431818181818 Q 3.133594415838068 1.9378431818181818 3.093026234019886 1.9139795454545456 Q 3.0524580522017044 1.8901159090909092 3.029617143110795 1.8464795454545455 Q 3.006776234019886 1.8028431818181818 3.006776234019886 1.7455704545454547 Q 3.006776234019886 1.6882977272727273 3.029617143110795 1.6450022727272728 Q 3.0524580522017044 1.6017068181818184 3.093026234019886 1.578184090909091 Q 3.133594415838068 1.5546613636363638 3.1847307794744313 1.5546613636363638 Q 3.2372307794744315 1.5546613636363638 3.2760944158380676 1.5792068181818184 M 3.3135944158380677 1.6671613636363638 Q 3.295185324928977 1.6330704545454546 3.2634807794744316 1.6146613636363638 Q 3.231776234019886 1.5962522727272728 3.193594415838068 1.5962522727272728 Q 3.1540489612926135 1.5962522727272728 3.1226853249289768 1.6139795454545456 Q 3.0913216885653405 1.6317068181818182 3.0732535067471587 1.6654568181818183 Q 3.055185324928977 1.6992068181818183 3.055185324928977 1.7455704545454547 Q 3.055185324928977 1.7912522727272728 3.0732535067471587 1.825684090909091 Q 3.0913216885653405 1.8601159090909092 3.1226853249289768 1.878184090909091 Q 3.1540489612926135 1.8962522727272728 3.193594415838068 1.8962522727272728 Q 3.231776234019886 1.8962522727272728 3.2634807794744316 1.877843181818182 Q 3.295185324928977 1.859434090909091 3.3135944158380677 1.825343181818182 Q 3.3320035067471587 1.7912522727272728 3.3320035067471587 1.746252272727273 Q 3.3320035067471587 1.7012522727272728 3.3135944158380677 1.6671613636363638 M 4.225508922230113 1.5945477272727273 Q 4.266758922230113 1.6357977272727273 4.266758922230113 1.7142068181818182 L 4.266758922230113 1.9323886363636364 L 4.219713467684659 1.9323886363636364 L 4.219713467684659 1.7196613636363638 Q 4.219713467684659 1.6589795454545455 4.190395285866477 1.626934090909091 Q 4.161077104048295 1.5948886363636365 4.110622558593749 1.5948886363636365 Q 4.05812255859375 1.5948886363636365 4.026758922230113 1.6296613636363637 Q 3.9953952858664765 1.664434090909091 3.9953952858664765 1.7305704545454546 L 3.9953952858664765 1.9323886363636364 L 3.948349831321022 1.9323886363636364 L 3.948349831321022 1.7196613636363638 Q 3.948349831321022 1.6589795454545455 3.9190316495028403 1.626934090909091 Q 3.8897134676846585 1.5948886363636365 3.8385771040482948 1.5948886363636365 Q 3.786077104048295 1.5948886363636365 3.7547134676846587 1.6296613636363637 Q 3.723349831321022 1.664434090909091 3.723349831321022 1.7305704545454546 L 3.723349831321022 1.9323886363636364 L 3.6756225585937496 1.9323886363636364 L 3.6756225585937496 1.5601159090909091 L 3.723349831321022 1.5601159090909091 L 3.723349831321022 1.6242068181818183 Q 3.741077104048295 1.5894340909090912 3.773804376775568 1.5713659090909093 Q 3.8065316495028405 1.5532977272727275 3.846758922230113 1.5532977272727275 Q 3.895168013139204 1.5532977272727275 3.9316452858664768 1.5764795454545455 Q 3.9681225585937496 1.5996613636363637 3.9844861949573858 1.6446613636363638 Q 3.999486194957386 1.600343181818182 4.035963467684659 1.5768204545454547 Q 4.072440740411931 1.5532977272727275 4.118804376775568 1.5532977272727275 Q 4.184258922230113 1.5532977272727275 4.225508922230113 1.5945477272727273 M 4.373444824218749 1.6450022727272728 Q 4.396285733309658 1.6017068181818184 4.43685391512784 1.578184090909091 Q 4.477422096946022 1.5546613636363638 4.528558460582386 1.5546613636363638 Q 4.581740278764204 1.5546613636363638 4.620263006036931 1.5792068181818184 Q 4.658785733309658 1.6037522727272728 4.675831187855113 1.641934090909091 L 4.675831187855113 1.5601159090909091 L 4.723558460582385 1.5601159090909091 L 4.723558460582385 1.9323886363636364 L 4.675831187855113 1.9323886363636364 L 4.675831187855113 1.8498886363636364 Q 4.65810391512784 1.8880704545454545 4.619581187855113 1.9129568181818182 Q 4.581058460582385 1.9378431818181818 4.527876642400567 1.9378431818181818 Q 4.477422096946022 1.9378431818181818 4.43685391512784 1.9139795454545456 Q 4.396285733309658 1.8901159090909092 4.373444824218749 1.8464795454545455 Q 4.350603915127841 1.8028431818181818 4.350603915127841 1.7455704545454547 Q 4.350603915127841 1.6882977272727273 4.373444824218749 1.6450022727272728 M 4.657422096946022 1.6671613636363638 Q 4.639013006036931 1.6330704545454546 4.607308460582385 1.6146613636363638 Q 4.57560391512784 1.5962522727272728 4.537422096946022 1.5962522727272728 Q 4.497876642400567 1.5962522727272728 4.466513006036931 1.6139795454545456 Q 4.435149369673295 1.6317068181818182 4.417081187855113 1.6654568181818183 Q 4.399013006036931 1.6992068181818183 4.399013006036931 1.7455704545454547 Q 4.399013006036931 1.7912522727272728 4.417081187855113 1.825684090909091 Q 4.435149369673295 1.8601159090909092 4.466513006036931 1.878184090909091 Q 4.497876642400567 1.8962522727272728 4.537422096946022 1.8962522727272728 Q 4.57560391512784 1.8962522727272728 4.607308460582385 1.877843181818182 Q 4.639013006036931 1.859434090909091 4.657422096946022 1.825343181818182 Q 4.675831187855113 1.7912522727272728 4.675831187855113 1.746252272727273 Q 4.675831187855113 1.7012522727272728 4.657422096946022 1.6671613636363638 M 4.834004683061079 1.6450022727272728 Q 4.857186501242897 1.6017068181818184 4.89775468306108 1.578184090909091 Q 4.938322864879261 1.5546613636363638 4.989459228515624 1.5546613636363638 Q 5.038550137606534 1.5546613636363638 5.078095592151988 1.5785250000000002 Q 5.117641046697443 1.6023886363636364 5.136050137606533 1.6405704545454547 L 5.136050137606533 1.427843181818182 L 5.183777410333806 1.427843181818182 L 5.183777410333806 1.9323886363636364 L 5.136050137606533 1.9323886363636364 L 5.136050137606533 1.8492068181818182 Q 5.119004683061079 1.8880704545454545 5.080141046697443 1.9129568181818182 Q 5.041277410333807 1.9378431818181818 4.988777410333807 1.9378431818181818 Q 4.9376410466974425 1.9378431818181818 4.897072864879261 1.9139795454545456 Q 4.856504683061079 1.8901159090909092 4.83366377397017 1.8464795454545455 Q 4.8108228648792615 1.8028431818181818 4.8108228648792615 1.7455704545454547 Q 4.8108228648792615 1.6882977272727273 4.834004683061079 1.6450022727272728 M 5.117641046697443 1.6671613636363638 Q 5.099231955788352 1.6330704545454546 5.067527410333806 1.6146613636363638 Q 5.035822864879261 1.5962522727272728 4.997641046697443 1.5962522727272728 Q 4.958095592151988 1.5962522727272728 4.926731955788352 1.6139795454545456 Q 4.8953683194247155 1.6317068181818182 4.877300137606534 1.6654568181818183 Q 4.859231955788352 1.6992068181818183 4.859231955788352 1.7455704545454547 Q 4.859231955788352 1.7912522727272728 4.877300137606534 1.825684090909091 Q 4.8953683194247155 1.8601159090909092 4.926731955788352 1.878184090909091 Q 4.958095592151988 1.8962522727272728 4.997641046697443 1.8962522727272728 Q 5.035822864879261 1.8962522727272728 5.067527410333806 1.877843181818182 Q 5.099231955788352 1.859434090909091 5.117641046697443 1.825343181818182 Q 5.136050137606533 1.7912522727272728 5.136050137606533 1.746252272727273 Q 5.136050137606533 1.7012522727272728 5.117641046697443 1.6671613636363638 M 5.628314541903408 1.7646613636363637 L 5.319450905539772 1.7646613636363637 Q 5.321496360085226 1.806934090909091 5.339905450994317 1.836934090909091 Q 5.358314541903408 1.866934090909091 5.388314541903409 1.8822750000000001 Q 5.418314541903408 1.8976159090909093 5.453769087357954 1.8976159090909093 Q 5.50013272372159 1.8976159090909093 5.531837269176136 1.875115909090909 Q 5.563541814630681 1.8526159090909091 5.573769087357954 1.814434090909091 L 5.624223632812499 1.814434090909091 Q 5.610587269176135 1.8689795454545455 5.565928178267044 1.9034113636363637 Q 5.521269087357954 1.9378431818181818 5.453769087357954 1.9378431818181818 Q 5.401269087357954 1.9378431818181818 5.359678178267044 1.9143204545454546 Q 5.318087269176136 1.8907977272727274 5.294564541903409 1.8475022727272727 Q 5.271041814630681 1.8042068181818183 5.271041814630681 1.746252272727273 Q 5.271041814630681 1.6882977272727273 5.294223632812499 1.6446613636363638 Q 5.317405450994317 1.6010250000000001 5.358996360085227 1.577843181818182 Q 5.400587269176135 1.5546613636363638 5.453769087357954 1.5546613636363638 Q 5.506950905539772 1.5546613636363638 5.546837269176136 1.577843181818182 Q 5.586723632812499 1.6010250000000001 5.608200905539772 1.6402295454545457 Q 5.629678178267045 1.679434090909091 5.629678178267045 1.7271613636363639 Q 5.629678178267045 1.7517068181818183 5.628314541903408 1.7646613636363637 M 5.564564541903408 1.6548886363636366 Q 5.547178178267044 1.6255704545454548 5.517178178267045 1.6105704545454547 Q 5.487178178267045 1.5955704545454545 5.451723632812499 1.5955704545454545 Q 5.398541814630681 1.5955704545454545 5.361041814630681 1.6296613636363637 Q 5.323541814630681 1.6637522727272729 5.319450905539772 1.7257977272727274 L 5.581269087357954 1.7257977272727274 Q 5.581950905539772 1.6842068181818184 5.564564541903408 1.6548886363636366 M 6.239220969460226 1.7646613636363637 L 5.93035733309659 1.7646613636363637 Q 5.932402787642045 1.806934090909091 5.950811878551136 1.836934090909091 Q 5.969220969460227 1.866934090909091 5.999220969460227 1.8822750000000001 Q 6.029220969460226 1.8976159090909093 6.064675514914772 1.8976159090909093 Q 6.111039151278408 1.8976159090909093 6.142743696732954 1.875115909090909 Q 6.174448242187499 1.8526159090909091 6.1846755149147725 1.814434090909091 L 6.235130060369317 1.814434090909091 Q 6.221493696732954 1.8689795454545455 6.176834605823863 1.9034113636363637 Q 6.132175514914772 1.9378431818181818 6.064675514914772 1.9378431818181818 Q 6.012175514914772 1.9378431818181818 5.970584605823863 1.9143204545454546 Q 5.928993696732954 1.8907977272727274 5.905470969460227 1.8475022727272727 Q 5.8819482421875 1.8042068181818183 5.8819482421875 1.746252272727273 Q 5.8819482421875 1.6882977272727273 5.905130060369317 1.6446613636363638 Q 5.928311878551136 1.6010250000000001 5.969902787642045 1.577843181818182 Q 6.011493696732954 1.5546613636363638 6.064675514914772 1.5546613636363638 Q 6.11785733309659 1.5546613636363638 6.157743696732954 1.577843181818182 Q 6.197630060369318 1.6010250000000001 6.2191073330965905 1.6402295454545457 Q 6.240584605823863 1.679434090909091 6.240584605823863 1.7271613636363639 Q 6.240584605823863 1.7517068181818183 6.239220969460226 1.7646613636363637 M 6.1754709694602266 1.6548886363636366 Q 6.158084605823863 1.6255704545454548 6.128084605823863 1.6105704545454547 Q 6.098084605823863 1.5955704545454545 6.062630060369317 1.5955704545454545 Q 6.009448242187499 1.5955704545454545 5.9719482421875 1.6296613636363637 Q 5.934448242187499 1.6637522727272729 5.93035733309659 1.7257977272727274 L 6.192175514914772 1.7257977272727274 Q 6.19285733309659 1.6842068181818184 6.1754709694602266 1.6548886363636366 M 6.328886385830965 1.6450022727272728 Q 6.351727294921874 1.6017068181818184 6.392295476740056 1.578184090909091 Q 6.4328636585582375 1.5546613636363638 6.484000022194602 1.5546613636363638 Q 6.5371818403764195 1.5546613636363638 6.575704567649147 1.5792068181818184 Q 6.614227294921874 1.6037522727272728 6.631272749467328 1.641934090909091 L 6.631272749467328 1.5601159090909091 L 6.679000022194601 1.5601159090909091 L 6.679000022194601 1.9323886363636364 L 6.631272749467328 1.9323886363636364 L 6.631272749467328 1.8498886363636364 Q 6.613545476740056 1.8880704545454545 6.575022749467329 1.9129568181818182 Q 6.536500022194602 1.9378431818181818 6.483318204012783 1.9378431818181818 Q 6.4328636585582375 1.9378431818181818 6.392295476740056 1.9139795454545456 Q 6.351727294921874 1.8901159090909092 6.328886385830965 1.8464795454545455 Q 6.306045476740056 1.8028431818181818 6.306045476740056 1.7455704545454547 Q 6.306045476740056 1.6882977272727273 6.328886385830965 1.6450022727272728 M 6.612863658558238 1.6671613636363638 Q 6.594454567649147 1.6330704545454546 6.562750022194601 1.6146613636363638 Q 6.531045476740056 1.5962522727272728 6.492863658558238 1.5962522727272728 Q 6.453318204012783 1.5962522727272728 6.421954567649147 1.6139795454545456 Q 6.3905909312855105 1.6317068181818182 6.372522749467329 1.6654568181818183 Q 6.354454567649147 1.6992068181818183 6.354454567649147 1.7455704545454547 Q 6.354454567649147 1.7912522727272728 6.372522749467329 1.825684090909091 Q 6.3905909312855105 1.8601159090909092 6.421954567649147 1.878184090909091 Q 6.453318204012783 1.8962522727272728 6.492863658558238 1.8962522727272728 Q 6.531045476740056 1.8962522727272728 6.562750022194601 1.877843181818182 Q 6.594454567649147 1.859434090909091 6.612863658558238 1.825343181818182 Q 6.631272749467328 1.7912522727272728 6.631272749467328 1.746252272727273 Q 6.631272749467328 1.7012522727272728 6.612863658558238 1.6671613636363638 M 6.811605335582385 1.908184090909091 Q 6.771037153764203 1.878525 6.766264426491476 1.8273886363636365 L 6.815355335582385 1.8273886363636365 Q 6.818764426491476 1.8587522727272727 6.845014426491476 1.878184090909091 Q 6.871264426491476 1.8976159090909093 6.915582608309657 1.8976159090909093 Q 6.954446244673294 1.8976159090909093 6.976605335582385 1.8792068181818182 Q 6.998764426491476 1.8607977272727274 6.998764426491476 1.833525 Q 6.998764426491476 1.814434090909091 6.986491699218749 1.8021613636363638 Q 6.974218971946021 1.7898886363636364 6.955468971946021 1.7827295454545455 Q 6.936718971946021 1.7755704545454547 6.904673517400567 1.7673886363636364 Q 6.863082608309658 1.7564795454545457 6.837173517400567 1.7455704545454547 Q 6.811264426491476 1.7346613636363637 6.793196244673294 1.713184090909091 Q 6.775128062855113 1.6917068181818182 6.775128062855113 1.6555704545454546 Q 6.775128062855113 1.6282977272727273 6.791491699218748 1.6051159090909093 Q 6.807855335582385 1.581934090909091 6.837855335582385 1.5682977272727274 Q 6.8678553355823855 1.5546613636363638 6.906037153764204 1.5546613636363638 Q 6.966037153764203 1.5546613636363638 7.002855335582385 1.5850022727272728 Q 7.0396735174005665 1.615343181818182 7.042400790127839 1.668525 L 6.9946735174005665 1.668525 Q 6.992628062855112 1.6357977272727273 6.969105335582385 1.615684090909091 Q 6.945582608309658 1.5955704545454545 6.904673517400567 1.5955704545454545 Q 6.868537153764203 1.5955704545454545 6.846037153764203 1.6126159090909091 Q 6.823537153764203 1.6296613636363637 6.823537153764203 1.6548886363636366 Q 6.823537153764203 1.6767068181818183 6.836832608309658 1.690684090909091 Q 6.850128062855112 1.7046613636363637 6.86990079012784 1.7125022727272727 Q 6.889673517400567 1.720343181818182 6.923082608309658 1.7298886363636365 Q 6.96330988103693 1.7407977272727273 6.987173517400567 1.751025 Q 7.011037153764203 1.7612522727272728 7.028082608309658 1.781025 Q 7.045128062855112 1.8007977272727274 7.045809881036931 1.833525 Q 7.045809881036931 1.863525 7.029446244673294 1.8870477272727273 Q 7.013082608309658 1.9105704545454547 6.983764426491476 1.9242068181818182 Q 6.954446244673294 1.9378431818181818 6.916264426491476 1.9378431818181818 Q 6.8521735174005665 1.9378431818181818 6.811605335582385 1.908184090909091 M 7.442634721235794 1.5601159090909091 L 7.221725630326703 2.1076159090909092 L 7.171952903053976 2.1076159090909092 L 7.244225630326703 1.930343181818182 L 7.09149835759943 1.5601159090909091 L 7.14399835759943 1.5601159090909091 L 7.270816539417612 1.877843181818182 L 7.393543812144885 1.5601159090909091 L 7.442634721235794 1.5601159090909091" fill="#225777" fill-rule="nonzero"></path></g><g clip-path="url(#SvgjsClipPath1098)"><g clip-path="url(#SvgjsClipPath1095bc6d7091-eec6-4686-a69d-385eb9ea1cef)"><path d=" M 1.4838284953805712 -1.9992121203302078 L 1.4838284953805712 -1.7366998680460282 L 0.8513432230630112 -1.9171065182883544 L 0.8513432230630112 -0.25003756041996983 L 1.0394493477086155 -0.25003756041996983 L 1.0394493477086155 -0.5312675004776359 L 2.0802722625172687 -0.2884685576570223 L 2.0802722625172687 -0.25003756041996983 L 2.53673162002885 -0.25003756041996983 L 2.53673162002885 -2.51222278983828 Z M 1.0394493477086155 -1.352788144351541 L 1.0394493477086155 -1.6613644934967122 L 2.080272262517269 -1.3595583718440785 L 2.080272262517269 -1.0749433180401438 Z M 1.0394493477086155 -0.8071874581882139 L 1.0394493477086155 -1.115763807333385 L 2.0802722625172687 -0.8302195066187095 L 2.0802722625172687 -0.5451398293594045 Z" fill="#225777" transform="matrix(1,0,0,1,0,0)" fill-rule="nonzero"></path></g><g clip-path="url(#SvgjsClipPath1095bc6d7091-eec6-4686-a69d-385eb9ea1cef)"><path d=" M 3.1596133324992404 -2.82363872186668 L 3.1596133324992404 -2.3524441633419286 L 3.0972210399209525 -2.3706308528807063 L 3.0972210399209525 -2.812089510261763 L 2.74258059391479 -2.638851336188006 L 2.74258059391479 -2.473312636517527 L 2.607242418843376 -2.512208257209949 L 2.607242418843376 -0.25048765124700934 L 2.8035126413476283 -0.25048765124700934 L 2.8035126413476283 -0.5168496407328282 L 4.271523635979539 -0.2591827473403665 L 4.271523635979539 -0.25048765124700934 L 4.4697187270846115 -0.25048765124700934 L 4.4697187270846115 -1.9727804255251122 L 3.785859375558972 -2.1709755166301847 L 3.785859375558972 -2.564046959873399 Z M 3.4379227822660083 -2.6144254173914 L 3.5521537775077463 -2.5616574678172093 L 3.5521537775077463 -2.4964110597273614 L 3.6111609563397655 -2.469993897550597 L 3.6111609563397655 -2.3677767373691463 L 3.5521537775077463 -2.3888839171988225 L 3.5521537775077463 -2.3029949527346685 L 3.4379227822660083 -2.3432844437932014 L 3.4379227822660083 -2.4301690299474346 L 3.360662539115873 -2.45844468594568 L 3.360662539115873 -2.5803087808113574 L 3.4379227822660083 -2.5467231424660235 Z M 2.8035126413476283 -1.898905296121246 L 2.8035126413476283 -2.2070170218110468 L 4.271523635979539 -1.7813555619125778 L 4.2719882594349095 -1.5063648511127403 Z M 2.8035126413476283 -1.3532382351785806 L 2.8035126413476283 -1.66141633564772 L 4.271523635979539 -1.258255925945038 L 4.2719882594349095 -0.9828005916898301 Z M 2.8035126413476283 -0.76927292655754 L 2.8035126413476283 -1.0768536540126323 L 4.271523635979539 -0.7342934178460956 L 4.2719882594349095 -0.45930270704625853 Z" fill="#225777" transform="matrix(1,0,0,1,0,0)" fill-rule="nonzero"></path></g><g clip-path="url(#SvgjsClipPath1095bc6d7091-eec6-4686-a69d-385eb9ea1cef)"><path d=" M 0 -1.5480948047620948 L 0 -0.250003245237012 L 0.781231152815372 -0.250003245237012 L 0.781231152815372 -1.928621414710313 Z" fill="#225777" transform="matrix(1,0,0,1,0,0)" fill-rule="nonzero"></path></g><g clip-path="url(#SvgjsClipPath1095bc6d7091-eec6-4686-a69d-385eb9ea1cef)"><path d=" M 0 -1.5480948047620948 L 0 -0.250003245237012 L 0.781231152815372 -0.250003245237012 L 0.781231152815372 -1.928621414710313 Z" fill="#225777" transform="matrix(1,0,0,1,0,0)" fill-rule="nonzero"></path></g><g clip-path="url(#SvgjsClipPath1095bc6d7091-eec6-4686-a69d-385eb9ea1cef)"><path d=" M 1.4838284953805712 -1.9992121203302078 L 1.4838284953805712 -1.7366998680460282 L 0.8513432230630112 -1.9171065182883544 L 0.8513432230630112 -0.25003756041996983 L 1.0394493477086155 -0.25003756041996983 L 1.0394493477086155 -0.5312675004776359 L 2.0802722625172687 -0.2884685576570223 L 2.0802722625172687 -0.25003756041996983 L 2.53673162002885 -0.25003756041996983 L 2.53673162002885 -2.51222278983828 Z M 1.0394493477086155 -1.352788144351541 L 1.0394493477086155 -1.6613644934967122 L 2.080272262517269 -1.3595583718440785 L 2.080272262517269 -1.0749433180401438 Z M 1.0394493477086155 -0.8071874581882139 L 1.0394493477086155 -1.115763807333385 L 2.0802722625172687 -0.8302195066187095 L 2.0802722625172687 -0.5451398293594045 Z" fill="#225777" transform="matrix(1,0,0,1,0,0)" fill-rule="nonzero"></path></g><g clip-path="url(#SvgjsClipPath1095bc6d7091-eec6-4686-a69d-385eb9ea1cef)"><path d=" M 3.1596133324992404 -2.82363872186668 L 3.1596133324992404 -2.3524441633419286 L 3.0972210399209525 -2.3706308528807063 L 3.0972210399209525 -2.812089510261763 L 2.74258059391479 -2.638851336188006 L 2.74258059391479 -2.473312636517527 L 2.607242418843376 -2.512208257209949 L 2.607242418843376 -0.25048765124700934 L 2.8035126413476283 -0.25048765124700934 L 2.8035126413476283 -0.5168496407328282 L 4.271523635979539 -0.2591827473403665 L 4.271523635979539 -0.25048765124700934 L 4.4697187270846115 -0.25048765124700934 L 4.4697187270846115 -1.9727804255251122 L 3.785859375558972 -2.1709755166301847 L 3.785859375558972 -2.564046959873399 Z M 3.4379227822660083 -2.6144254173914 L 3.5521537775077463 -2.5616574678172093 L 3.5521537775077463 -2.4964110597273614 L 3.6111609563397655 -2.469993897550597 L 3.6111609563397655 -2.3677767373691463 L 3.5521537775077463 -2.3888839171988225 L 3.5521537775077463 -2.3029949527346685 L 3.4379227822660083 -2.3432844437932014 L 3.4379227822660083 -2.4301690299474346 L 3.360662539115873 -2.45844468594568 L 3.360662539115873 -2.5803087808113574 L 3.4379227822660083 -2.5467231424660235 Z M 2.8035126413476283 -1.898905296121246 L 2.8035126413476283 -2.2070170218110468 L 4.271523635979539 -1.7813555619125778 L 4.2719882594349095 -1.5063648511127403 Z M 2.8035126413476283 -1.3532382351785806 L 2.8035126413476283 -1.66141633564772 L 4.271523635979539 -1.258255925945038 L 4.2719882594349095 -0.9828005916898301 Z M 2.8035126413476283 -0.76927292655754 L 2.8035126413476283 -1.0768536540126323 L 4.271523635979539 -0.7342934178460956 L 4.2719882594349095 -0.45930270704625853 Z" fill="#225777" transform="matrix(1,0,0,1,0,0)" fill-rule="nonzero"></path></g></g></g><defs><clipPath id="SvgjsClipPath1098"><path d=" M 0 -2.82363872186668 h 4.46965562741101 v 2.57363872186668 h -4.46965562741101 Z"></path></clipPath><clipPath id="SvgjsClipPath1095bc6d7091-eec6-4686-a69d-385eb9ea1cef"><path d=" M 0 -2.82363872186668 L 4.46965562741101 -2.82363872186668 L 4.46965562741101 -0.24999999999999956 L 0 -0.24999999999999956 Z"></path></clipPath></defs></svg>